<svg width="179" height="100" viewBox="0 0 179 100" version="1.1" xmlns="http://www.w3.org/2000/svg" xmlns:xlink="http://www.w3.org/1999/xlink"><title>Logo</title><defs><path id="path-1" d="M0 .496H178.68V25.58H0z"/></defs><g id="Design" stroke="none" stroke-width="1" fill="none" fill-rule="evenodd"><g id="01_Alpine_Tech_Website_Desktop_Submenu_Axe-3" transform="translate(-751 -45)"><g id="Logo" transform="translate(751 45)"><path d="M107.52 84.787h1.476v6.258h11.858v-6.258h1.476v14.608h-1.476v-7.047h-11.858v7.047h-1.476V84.787zm-19.737 7.225c0-4.66 3.349-7.522 8.607-7.522 4.471 0 7.012 2.133 7.878 4.481l-1.378.455c-.729-1.935-2.896-3.633-6.5-3.633-4.608 0-7.11 2.527-7.11 6.219 0 3.711 2.186 6.396 7.09 6.396 4.196 0 6.028-2.211 6.638-3.83l1.36.473c-.808 2.074-3.132 4.64-7.998 4.64-5.672 0-8.587-2.98-8.587-7.68zm-14.891-7.225h12.802v1.303H74.369v5.014h9.454v1.264H74.37v5.744h11.522v1.283h-13V84.787zM61.9 86.09h-6.776v-1.303h15.028v1.303h-6.775v13.305H61.9V86.09z" id="Fill-1" fill="#FFF"/><g id="Group-5" transform="translate(0 48.22)"><mask id="mask-2" fill="#fff"><use xlink:href="#path-1"/></mask><path d="M149.187.496h28.328v6.393h-18.76v2.782h15.534v6.394h-15.535v3.122h19.925v6.393h-29.492V.496zm-35.9 0h10.807l7.842 9.514c1.876 2.406 2.063 2.708 3.752 6.206h.3c-.825-2.144-1.276-4.852-1.276-7.71V.496h9.568V25.58h-10.506l-8.254-9.816c-1.501-1.88-2.29-3.234-3.49-6.093h-.3c.863 2.482 1.126 4.063 1.126 6.92v8.989h-9.569V.496zM98.733 25.58h9.567V.496h-9.567V25.58zM80.957 11.1c1.95 0 2.663-.074 3.15-.375.676-.414 1.09-1.204 1.09-2.219 0-1.843-.977-2.407-4.204-2.407h-6.04V11.1h6.004zM65.385.497H84.07c4.803 0 6.792.413 8.593 1.73 1.8 1.354 2.776 3.685 2.776 6.618 0 3.31-1.163 5.754-3.339 7.033-1.726 1.015-3.264 1.278-7.954 1.278h-9.193v8.425h-9.568V.496zm-30.535 0h9.568v18.69h17.897v6.394H34.85V.496zM19.286 16.892L16.06 7.68l-3.377 9.212h6.604zM10.018.496h12.645L32.68 25.58H22.212l-1.05-2.295H10.956l-.938 2.295H0L10.018.496z" id="Fill-3" fill="#FFF" mask="url(#mask-2)"/></g><path id="Fill-6" fill-opacity=".8" fill="#FFF" d="M72.468 24.853L83.088 0 81.88 24.386z"/><path id="Fill-8" fill="#FFF" d="M83.087 0l23.124 23.177-24.33 1.21z"/><path id="Fill-10" fill-opacity=".8" fill="#FFF" d="M81.415 33.82l.466-9.434 24.33-1.21z"/><path id="Fill-12" fill-opacity=".6" fill="#FFF" d="M81.881 24.386l-.466 9.435-8.947-8.967z"/></g></g></g></svg>